<svg xmlns="http://www.w3.org/2000/svg" version="1.1" xmlns:xlink="http://www.w3.org/1999/xlink" width="512" height="512" x="0" y="0" viewBox="0 0 24 24" style="enable-background:new 0 0 512 512" xml:space="preserve" class=""><g><linearGradient id="a" x1="12" x2="12" y1="6.25" y2="17.75" gradientUnits="userSpaceOnUse"><stop stop-opacity="1" stop-color="#a715ed" offset="0"></stop><stop stop-opacity="1" stop-color="#7d07b5" offset="0.5216049019328505"></stop><stop stop-opacity="1" stop-color="#53007b" offset="1"></stop></linearGradient><g fill="url(#a)" fill-rule="evenodd" clip-rule="evenodd"><path d="M19.75 12a.75.75 0 0 0-.75-.75H5a.75.75 0 0 0 0 1.5h14a.75.75 0 0 0 .75-.75zM19.75 7a.75.75 0 0 0-.75-.75H5a.75.75 0 0 0 0 1.5h14a.75.75 0 0 0 .75-.75zM19.75 17a.75.75 0 0 0-.75-.75H5a.75.75 0 0 0 0 1.5h14a.75.75 0 0 0 .75-.75z" fill="" opacity="1"></path></g></g></svg>